G04 #@! TF.GenerationSoftware,KiCad,Pcbnew,5.0.2-bee76a0~70~ubuntu16.04.1*
G04 #@! TF.CreationDate,2019-11-03T02:00:58+01:00*
G04 #@! TF.ProjectId,switch,73776974-6368-42e6-9b69-6361645f7063,rev?*
G04 #@! TF.SameCoordinates,Original*
G04 #@! TF.FileFunction,Soldermask,Top*
G04 #@! TF.FilePolarity,Negative*
%FSLAX46Y46*%
G04 Gerber Fmt 4.6, Leading zero omitted, Abs format (unit mm)*
G04 Created by KiCad (PCBNEW 5.0.2-bee76a0~70~ubuntu16.04.1) date Sun 03 Nov 2019 02:00:58 AM CET*
%MOMM*%
%LPD*%
G01*
G04 APERTURE LIST*
%ADD10C,0.100000*%
G04 APERTURE END LIST*
D10*
G36*
X144077861Y-70309497D02*
X144184446Y-70319995D01*
X144366789Y-70375308D01*
X144457961Y-70402965D01*
X144592697Y-70474984D01*
X144710033Y-70537701D01*
X144710035Y-70537702D01*
X144710034Y-70537702D01*
X144930976Y-70719024D01*
X145112298Y-70939966D01*
X145247035Y-71192039D01*
X145247035Y-71192040D01*
X145330005Y-71465554D01*
X145358020Y-71750000D01*
X145330005Y-72034446D01*
X145274692Y-72216789D01*
X145247035Y-72307961D01*
X145175016Y-72442697D01*
X145112299Y-72560033D01*
X144930976Y-72780976D01*
X144710033Y-72962299D01*
X144592697Y-73025016D01*
X144457961Y-73097035D01*
X144366789Y-73124692D01*
X144184446Y-73180005D01*
X144077861Y-73190503D01*
X143971278Y-73201000D01*
X143028722Y-73201000D01*
X142922139Y-73190503D01*
X142815554Y-73180005D01*
X142633211Y-73124692D01*
X142542039Y-73097035D01*
X142407303Y-73025016D01*
X142289967Y-72962299D01*
X142069024Y-72780976D01*
X141887701Y-72560033D01*
X141824984Y-72442697D01*
X141752965Y-72307961D01*
X141725308Y-72216789D01*
X141669995Y-72034446D01*
X141641980Y-71750000D01*
X141669995Y-71465554D01*
X141752965Y-71192040D01*
X141752965Y-71192039D01*
X141887702Y-70939966D01*
X142069024Y-70719024D01*
X142289966Y-70537702D01*
X142289965Y-70537702D01*
X142289967Y-70537701D01*
X142407303Y-70474984D01*
X142542039Y-70402965D01*
X142633211Y-70375308D01*
X142815554Y-70319995D01*
X142922139Y-70309497D01*
X143028722Y-70299000D01*
X143971278Y-70299000D01*
X144077861Y-70309497D01*
X144077861Y-70309497D01*
G37*
G36*
X126432078Y-67147703D02*
X126554501Y-67172054D01*
X126691531Y-67228814D01*
X126900460Y-67315355D01*
X127211820Y-67523399D01*
X127476601Y-67788180D01*
X127684645Y-68099540D01*
X127768589Y-68302198D01*
X127804189Y-68388144D01*
X127827946Y-68445500D01*
X127901000Y-68812766D01*
X127901000Y-69187234D01*
X127827946Y-69554500D01*
X127684645Y-69900460D01*
X127476601Y-70211820D01*
X127211820Y-70476601D01*
X126900460Y-70684645D01*
X126740264Y-70751000D01*
X126554501Y-70827946D01*
X126432078Y-70852297D01*
X126187234Y-70901000D01*
X125812766Y-70901000D01*
X125567922Y-70852297D01*
X125445499Y-70827946D01*
X125259736Y-70751000D01*
X125099540Y-70684645D01*
X124788180Y-70476601D01*
X124523399Y-70211820D01*
X124315355Y-69900460D01*
X124172054Y-69554500D01*
X124099000Y-69187234D01*
X124099000Y-68812766D01*
X124172054Y-68445500D01*
X124195812Y-68388144D01*
X124231411Y-68302198D01*
X124315355Y-68099540D01*
X124523399Y-67788180D01*
X124788180Y-67523399D01*
X125099540Y-67315355D01*
X125308469Y-67228814D01*
X125445499Y-67172054D01*
X125567922Y-67147703D01*
X125812766Y-67099000D01*
X126187234Y-67099000D01*
X126432078Y-67147703D01*
X126432078Y-67147703D01*
G37*
G36*
X138127421Y-66531661D02*
X138127423Y-66531662D01*
X138127424Y-66531662D01*
X138518881Y-66693808D01*
X138869594Y-66928147D01*
X138871186Y-66929211D01*
X139170789Y-67228814D01*
X139170791Y-67228817D01*
X139406192Y-67581119D01*
X139491960Y-67788183D01*
X139568339Y-67972579D01*
X139651000Y-68388144D01*
X139651000Y-68811856D01*
X139576333Y-69187234D01*
X139568338Y-69227424D01*
X139406192Y-69618881D01*
X139218046Y-69900461D01*
X139170789Y-69971186D01*
X138871186Y-70270789D01*
X138871183Y-70270791D01*
X138518881Y-70506192D01*
X138127424Y-70668338D01*
X138127423Y-70668338D01*
X138127421Y-70668339D01*
X137711856Y-70751000D01*
X137288144Y-70751000D01*
X136872579Y-70668339D01*
X136872577Y-70668338D01*
X136872576Y-70668338D01*
X136481119Y-70506192D01*
X136128817Y-70270791D01*
X136128814Y-70270789D01*
X135829211Y-69971186D01*
X135781954Y-69900461D01*
X135593808Y-69618881D01*
X135431662Y-69227424D01*
X135423668Y-69187234D01*
X135349000Y-68811856D01*
X135349000Y-68388144D01*
X135431661Y-67972579D01*
X135508040Y-67788183D01*
X135593808Y-67581119D01*
X135829209Y-67228817D01*
X135829211Y-67228814D01*
X136128814Y-66929211D01*
X136130406Y-66928147D01*
X136481119Y-66693808D01*
X136872576Y-66531662D01*
X136872577Y-66531662D01*
X136872579Y-66531661D01*
X137288144Y-66449000D01*
X137711856Y-66449000D01*
X138127421Y-66531661D01*
X138127421Y-66531661D01*
G37*
G36*
X138127421Y-59331661D02*
X138127423Y-59331662D01*
X138127424Y-59331662D01*
X138518881Y-59493808D01*
X138797544Y-59680005D01*
X138871186Y-59729211D01*
X139170789Y-60028814D01*
X139170791Y-60028817D01*
X139406192Y-60381119D01*
X139546156Y-60719024D01*
X139568339Y-60772579D01*
X139651000Y-61188144D01*
X139651000Y-61611855D01*
X139568338Y-62027424D01*
X139406192Y-62418881D01*
X139311877Y-62560033D01*
X139170789Y-62771186D01*
X138871186Y-63070789D01*
X138871183Y-63070791D01*
X138518881Y-63306192D01*
X138127424Y-63468338D01*
X138127423Y-63468338D01*
X138127421Y-63468339D01*
X137711856Y-63551000D01*
X137288144Y-63551000D01*
X136872579Y-63468339D01*
X136872577Y-63468338D01*
X136872576Y-63468338D01*
X136481119Y-63306192D01*
X136128817Y-63070791D01*
X136128814Y-63070789D01*
X135829211Y-62771186D01*
X135688123Y-62560033D01*
X135593808Y-62418881D01*
X135431662Y-62027424D01*
X135349000Y-61611855D01*
X135349000Y-61188144D01*
X135431661Y-60772579D01*
X135453844Y-60719024D01*
X135593808Y-60381119D01*
X135829209Y-60028817D01*
X135829211Y-60028814D01*
X136128814Y-59729211D01*
X136202456Y-59680005D01*
X136481119Y-59493808D01*
X136872576Y-59331662D01*
X136872577Y-59331662D01*
X136872579Y-59331661D01*
X137288144Y-59249000D01*
X137711856Y-59249000D01*
X138127421Y-59331661D01*
X138127421Y-59331661D01*
G37*
G36*
X114577861Y-60309498D02*
X114684446Y-60319995D01*
X114866789Y-60375308D01*
X114957961Y-60402965D01*
X115092697Y-60474984D01*
X115210033Y-60537701D01*
X115210035Y-60537702D01*
X115210034Y-60537702D01*
X115430976Y-60719024D01*
X115612298Y-60939966D01*
X115747035Y-61192039D01*
X115747035Y-61192040D01*
X115830005Y-61465554D01*
X115858020Y-61750000D01*
X115830005Y-62034446D01*
X115774692Y-62216789D01*
X115747035Y-62307961D01*
X115675016Y-62442697D01*
X115612299Y-62560033D01*
X115430976Y-62780976D01*
X115210033Y-62962299D01*
X115092697Y-63025016D01*
X114957961Y-63097035D01*
X114866789Y-63124692D01*
X114684446Y-63180005D01*
X114577861Y-63190502D01*
X114471278Y-63201000D01*
X113528722Y-63201000D01*
X113422139Y-63190502D01*
X113315554Y-63180005D01*
X113133211Y-63124692D01*
X113042039Y-63097035D01*
X112907303Y-63025016D01*
X112789967Y-62962299D01*
X112569024Y-62780976D01*
X112387701Y-62560033D01*
X112324984Y-62442697D01*
X112252965Y-62307961D01*
X112225308Y-62216789D01*
X112169995Y-62034446D01*
X112141980Y-61750000D01*
X112169995Y-61465554D01*
X112252965Y-61192040D01*
X112252965Y-61192039D01*
X112387702Y-60939966D01*
X112569024Y-60719024D01*
X112789966Y-60537702D01*
X112789965Y-60537702D01*
X112789967Y-60537701D01*
X112907303Y-60474984D01*
X113042039Y-60402965D01*
X113133211Y-60375308D01*
X113315554Y-60319995D01*
X113422139Y-60309498D01*
X113528722Y-60299000D01*
X114471278Y-60299000D01*
X114577861Y-60309498D01*
X114577861Y-60309498D01*
G37*
G36*
X120627421Y-56531661D02*
X120627423Y-56531662D01*
X120627424Y-56531662D01*
X121018881Y-56693808D01*
X121331906Y-56902965D01*
X121371186Y-56929211D01*
X121670789Y-57228814D01*
X121670791Y-57228817D01*
X121906192Y-57581119D01*
X122065429Y-57965554D01*
X122068339Y-57972579D01*
X122151000Y-58388144D01*
X122151000Y-58811856D01*
X122101635Y-59060033D01*
X122068338Y-59227424D01*
X121906192Y-59618881D01*
X121671853Y-59969594D01*
X121670789Y-59971186D01*
X121371186Y-60270789D01*
X121371183Y-60270791D01*
X121018881Y-60506192D01*
X120627424Y-60668338D01*
X120627423Y-60668338D01*
X120627421Y-60668339D01*
X120211856Y-60751000D01*
X119788144Y-60751000D01*
X119372579Y-60668339D01*
X119372577Y-60668338D01*
X119372576Y-60668338D01*
X118981119Y-60506192D01*
X118628817Y-60270791D01*
X118628814Y-60270789D01*
X118329211Y-59971186D01*
X118328147Y-59969594D01*
X118093808Y-59618881D01*
X117931662Y-59227424D01*
X117898366Y-59060033D01*
X117849000Y-58811856D01*
X117849000Y-58388144D01*
X117931661Y-57972579D01*
X117934571Y-57965554D01*
X118093808Y-57581119D01*
X118329209Y-57228817D01*
X118329211Y-57228814D01*
X118628814Y-56929211D01*
X118668094Y-56902965D01*
X118981119Y-56693808D01*
X119372576Y-56531662D01*
X119372577Y-56531662D01*
X119372579Y-56531661D01*
X119788144Y-56449000D01*
X120211856Y-56449000D01*
X120627421Y-56531661D01*
X120627421Y-56531661D01*
G37*
G36*
X144077861Y-56809497D02*
X144184446Y-56819995D01*
X144366789Y-56875308D01*
X144457961Y-56902965D01*
X144507063Y-56929211D01*
X144710033Y-57037701D01*
X144710035Y-57037702D01*
X144710034Y-57037702D01*
X144930976Y-57219024D01*
X145112298Y-57439966D01*
X145247035Y-57692039D01*
X145247035Y-57692040D01*
X145330005Y-57965554D01*
X145358020Y-58250000D01*
X145330005Y-58534446D01*
X145274692Y-58716789D01*
X145247035Y-58807961D01*
X145244953Y-58811856D01*
X145112299Y-59060033D01*
X144930976Y-59280976D01*
X144710033Y-59462299D01*
X144651082Y-59493809D01*
X144457961Y-59597035D01*
X144385944Y-59618881D01*
X144184446Y-59680005D01*
X144077861Y-59690502D01*
X143971278Y-59701000D01*
X143028722Y-59701000D01*
X142922139Y-59690502D01*
X142815554Y-59680005D01*
X142614056Y-59618881D01*
X142542039Y-59597035D01*
X142348918Y-59493809D01*
X142289967Y-59462299D01*
X142069024Y-59280976D01*
X141887701Y-59060033D01*
X141755047Y-58811856D01*
X141752965Y-58807961D01*
X141725308Y-58716789D01*
X141669995Y-58534446D01*
X141641980Y-58250000D01*
X141669995Y-57965554D01*
X141752965Y-57692040D01*
X141752965Y-57692039D01*
X141887702Y-57439966D01*
X142069024Y-57219024D01*
X142289966Y-57037702D01*
X142289965Y-57037702D01*
X142289967Y-57037701D01*
X142492937Y-56929211D01*
X142542039Y-56902965D01*
X142633211Y-56875308D01*
X142815554Y-56819995D01*
X142922139Y-56809497D01*
X143028722Y-56799000D01*
X143971278Y-56799000D01*
X144077861Y-56809497D01*
X144077861Y-56809497D01*
G37*
G36*
X132051000Y-58451000D02*
X127949000Y-58451000D01*
X127949000Y-56549000D01*
X132051000Y-56549000D01*
X132051000Y-58451000D01*
X132051000Y-58451000D01*
G37*
G36*
X132051000Y-55951000D02*
X127949000Y-55951000D01*
X127949000Y-54049000D01*
X132051000Y-54049000D01*
X132051000Y-55951000D01*
X132051000Y-55951000D01*
G37*
G36*
X120627421Y-49331661D02*
X120627423Y-49331662D01*
X120627424Y-49331662D01*
X121018881Y-49493808D01*
X121297544Y-49680005D01*
X121371186Y-49729211D01*
X121670789Y-50028814D01*
X121670791Y-50028817D01*
X121906192Y-50381119D01*
X122046156Y-50719024D01*
X122068339Y-50772579D01*
X122151000Y-51188144D01*
X122151000Y-51611855D01*
X122068338Y-52027424D01*
X121906192Y-52418881D01*
X121811877Y-52560033D01*
X121670789Y-52771186D01*
X121371186Y-53070789D01*
X121371183Y-53070791D01*
X121018881Y-53306192D01*
X120627424Y-53468338D01*
X120627423Y-53468338D01*
X120627421Y-53468339D01*
X120211856Y-53551000D01*
X119788144Y-53551000D01*
X119372579Y-53468339D01*
X119372577Y-53468338D01*
X119372576Y-53468338D01*
X118981119Y-53306192D01*
X118628817Y-53070791D01*
X118628814Y-53070789D01*
X118329211Y-52771186D01*
X118188123Y-52560033D01*
X118093808Y-52418881D01*
X117931662Y-52027424D01*
X117849000Y-51611855D01*
X117849000Y-51188144D01*
X117931661Y-50772579D01*
X117953844Y-50719024D01*
X118093808Y-50381119D01*
X118329209Y-50028817D01*
X118329211Y-50028814D01*
X118628814Y-49729211D01*
X118702456Y-49680005D01*
X118981119Y-49493808D01*
X119372576Y-49331662D01*
X119372577Y-49331662D01*
X119372579Y-49331661D01*
X119788144Y-49249000D01*
X120211856Y-49249000D01*
X120627421Y-49331661D01*
X120627421Y-49331661D01*
G37*
G36*
X132051000Y-53451000D02*
X127949000Y-53451000D01*
X127949000Y-51549000D01*
X132051000Y-51549000D01*
X132051000Y-53451000D01*
X132051000Y-53451000D01*
G37*
G36*
X144077861Y-50309498D02*
X144184446Y-50319995D01*
X144366789Y-50375308D01*
X144457961Y-50402965D01*
X144592697Y-50474984D01*
X144710033Y-50537701D01*
X144710035Y-50537702D01*
X144710034Y-50537702D01*
X144930976Y-50719024D01*
X145112298Y-50939966D01*
X145247035Y-51192039D01*
X145247035Y-51192040D01*
X145330005Y-51465554D01*
X145358020Y-51750000D01*
X145330005Y-52034446D01*
X145274692Y-52216789D01*
X145247035Y-52307961D01*
X145175016Y-52442697D01*
X145112299Y-52560033D01*
X144930976Y-52780976D01*
X144710033Y-52962299D01*
X144592697Y-53025016D01*
X144457961Y-53097035D01*
X144366789Y-53124692D01*
X144184446Y-53180005D01*
X144077861Y-53190503D01*
X143971278Y-53201000D01*
X143028722Y-53201000D01*
X142922139Y-53190503D01*
X142815554Y-53180005D01*
X142633211Y-53124692D01*
X142542039Y-53097035D01*
X142407303Y-53025016D01*
X142289967Y-52962299D01*
X142069024Y-52780976D01*
X141887701Y-52560033D01*
X141824984Y-52442697D01*
X141752965Y-52307961D01*
X141725308Y-52216789D01*
X141669995Y-52034446D01*
X141641980Y-51750000D01*
X141669995Y-51465554D01*
X141752965Y-51192040D01*
X141752965Y-51192039D01*
X141887702Y-50939966D01*
X142069024Y-50719024D01*
X142289966Y-50537702D01*
X142289965Y-50537702D01*
X142289967Y-50537701D01*
X142407303Y-50474984D01*
X142542039Y-50402965D01*
X142633211Y-50375308D01*
X142815554Y-50319995D01*
X142922139Y-50309498D01*
X143028722Y-50299000D01*
X143971278Y-50299000D01*
X144077861Y-50309498D01*
X144077861Y-50309498D01*
G37*
G36*
X138127421Y-46531661D02*
X138127423Y-46531662D01*
X138127424Y-46531662D01*
X138518881Y-46693808D01*
X138831906Y-46902965D01*
X138871186Y-46929211D01*
X139170789Y-47228814D01*
X139170791Y-47228817D01*
X139406192Y-47581119D01*
X139565429Y-47965554D01*
X139568339Y-47972579D01*
X139651000Y-48388144D01*
X139651000Y-48811856D01*
X139601635Y-49060033D01*
X139568338Y-49227424D01*
X139406192Y-49618881D01*
X139171853Y-49969594D01*
X139170789Y-49971186D01*
X138871186Y-50270789D01*
X138871183Y-50270791D01*
X138518881Y-50506192D01*
X138127424Y-50668338D01*
X138127423Y-50668338D01*
X138127421Y-50668339D01*
X137711856Y-50751000D01*
X137288144Y-50751000D01*
X136872579Y-50668339D01*
X136872577Y-50668338D01*
X136872576Y-50668338D01*
X136481119Y-50506192D01*
X136128817Y-50270791D01*
X136128814Y-50270789D01*
X135829211Y-49971186D01*
X135828147Y-49969594D01*
X135593808Y-49618881D01*
X135431662Y-49227424D01*
X135398366Y-49060033D01*
X135349000Y-48811856D01*
X135349000Y-48388144D01*
X135431661Y-47972579D01*
X135434571Y-47965554D01*
X135593808Y-47581119D01*
X135829209Y-47228817D01*
X135829211Y-47228814D01*
X136128814Y-46929211D01*
X136168094Y-46902965D01*
X136481119Y-46693808D01*
X136872576Y-46531662D01*
X136872577Y-46531662D01*
X136872579Y-46531661D01*
X137288144Y-46449000D01*
X137711856Y-46449000D01*
X138127421Y-46531661D01*
X138127421Y-46531661D01*
G37*
G36*
X114577861Y-46809498D02*
X114684446Y-46819995D01*
X114866789Y-46875308D01*
X114957961Y-46902965D01*
X115007063Y-46929211D01*
X115210033Y-47037701D01*
X115210035Y-47037702D01*
X115210034Y-47037702D01*
X115430976Y-47219024D01*
X115612298Y-47439966D01*
X115747035Y-47692039D01*
X115747035Y-47692040D01*
X115830005Y-47965554D01*
X115858020Y-48250000D01*
X115830005Y-48534446D01*
X115774692Y-48716789D01*
X115747035Y-48807961D01*
X115744953Y-48811856D01*
X115612299Y-49060033D01*
X115430976Y-49280976D01*
X115210033Y-49462299D01*
X115151082Y-49493809D01*
X114957961Y-49597035D01*
X114885944Y-49618881D01*
X114684446Y-49680005D01*
X114577861Y-49690502D01*
X114471278Y-49701000D01*
X113528722Y-49701000D01*
X113422139Y-49690503D01*
X113315554Y-49680005D01*
X113114056Y-49618881D01*
X113042039Y-49597035D01*
X112848918Y-49493809D01*
X112789967Y-49462299D01*
X112569024Y-49280976D01*
X112387701Y-49060033D01*
X112255047Y-48811856D01*
X112252965Y-48807961D01*
X112225308Y-48716789D01*
X112169995Y-48534446D01*
X112141980Y-48250000D01*
X112169995Y-47965554D01*
X112252965Y-47692040D01*
X112252965Y-47692039D01*
X112387702Y-47439966D01*
X112569024Y-47219024D01*
X112789966Y-47037702D01*
X112789965Y-47037702D01*
X112789967Y-47037701D01*
X112992937Y-46929211D01*
X113042039Y-46902965D01*
X113133211Y-46875308D01*
X113315554Y-46819995D01*
X113422139Y-46809498D01*
X113528722Y-46799000D01*
X114471278Y-46799000D01*
X114577861Y-46809498D01*
X114577861Y-46809498D01*
G37*
G36*
X138127421Y-39331661D02*
X138127423Y-39331662D01*
X138127424Y-39331662D01*
X138518881Y-39493808D01*
X138797544Y-39680005D01*
X138871186Y-39729211D01*
X139170789Y-40028814D01*
X139170791Y-40028817D01*
X139406192Y-40381119D01*
X139568338Y-40772576D01*
X139568339Y-40772579D01*
X139650819Y-41187234D01*
X139651000Y-41188145D01*
X139651000Y-41611855D01*
X139568338Y-42027424D01*
X139406192Y-42418881D01*
X139228614Y-42684645D01*
X139170789Y-42771186D01*
X138871186Y-43070789D01*
X138871183Y-43070791D01*
X138518881Y-43306192D01*
X138127424Y-43468338D01*
X138127423Y-43468338D01*
X138127421Y-43468339D01*
X137711856Y-43551000D01*
X137288144Y-43551000D01*
X136872579Y-43468339D01*
X136872577Y-43468338D01*
X136872576Y-43468338D01*
X136481119Y-43306192D01*
X136128817Y-43070791D01*
X136128814Y-43070789D01*
X135829211Y-42771186D01*
X135771386Y-42684645D01*
X135593808Y-42418881D01*
X135431662Y-42027424D01*
X135349000Y-41611855D01*
X135349000Y-41188145D01*
X135349181Y-41187234D01*
X135431661Y-40772579D01*
X135431662Y-40772576D01*
X135593808Y-40381119D01*
X135829209Y-40028817D01*
X135829211Y-40028814D01*
X136128814Y-39729211D01*
X136202456Y-39680005D01*
X136481119Y-39493808D01*
X136872576Y-39331662D01*
X136872577Y-39331662D01*
X136872579Y-39331661D01*
X137288144Y-39249000D01*
X137711856Y-39249000D01*
X138127421Y-39331661D01*
X138127421Y-39331661D01*
G37*
G36*
X126432078Y-39147703D02*
X126554501Y-39172054D01*
X126697802Y-39231411D01*
X126900460Y-39315355D01*
X127211820Y-39523399D01*
X127476601Y-39788180D01*
X127684645Y-40099540D01*
X127827946Y-40445500D01*
X127901000Y-40812766D01*
X127901000Y-41187234D01*
X127852297Y-41432078D01*
X127827946Y-41554501D01*
X127768589Y-41697802D01*
X127684645Y-41900460D01*
X127476601Y-42211820D01*
X127211820Y-42476601D01*
X126900460Y-42684645D01*
X126697802Y-42768589D01*
X126554501Y-42827946D01*
X126432078Y-42852297D01*
X126187234Y-42901000D01*
X125812766Y-42901000D01*
X125567922Y-42852297D01*
X125445499Y-42827946D01*
X125302198Y-42768589D01*
X125099540Y-42684645D01*
X124788180Y-42476601D01*
X124523399Y-42211820D01*
X124315355Y-41900460D01*
X124231411Y-41697802D01*
X124172054Y-41554501D01*
X124147703Y-41432078D01*
X124099000Y-41187234D01*
X124099000Y-40812766D01*
X124172054Y-40445500D01*
X124315355Y-40099540D01*
X124523399Y-39788180D01*
X124788180Y-39523399D01*
X125099540Y-39315355D01*
X125302198Y-39231411D01*
X125445499Y-39172054D01*
X125567922Y-39147703D01*
X125812766Y-39099000D01*
X126187234Y-39099000D01*
X126432078Y-39147703D01*
X126432078Y-39147703D01*
G37*
G36*
X144077861Y-36809498D02*
X144184446Y-36819995D01*
X144366789Y-36875308D01*
X144457961Y-36902965D01*
X144592697Y-36974984D01*
X144710033Y-37037701D01*
X144710035Y-37037702D01*
X144710034Y-37037702D01*
X144930976Y-37219024D01*
X145112298Y-37439966D01*
X145247035Y-37692039D01*
X145247035Y-37692040D01*
X145330005Y-37965554D01*
X145358020Y-38250000D01*
X145330005Y-38534446D01*
X145274692Y-38716789D01*
X145247035Y-38807961D01*
X145175016Y-38942697D01*
X145112299Y-39060033D01*
X144930976Y-39280976D01*
X144710033Y-39462299D01*
X144651082Y-39493809D01*
X144457961Y-39597035D01*
X144366789Y-39624692D01*
X144184446Y-39680005D01*
X144077861Y-39690503D01*
X143971278Y-39701000D01*
X143028722Y-39701000D01*
X142922139Y-39690503D01*
X142815554Y-39680005D01*
X142633211Y-39624692D01*
X142542039Y-39597035D01*
X142348918Y-39493809D01*
X142289967Y-39462299D01*
X142069024Y-39280976D01*
X141887701Y-39060033D01*
X141824984Y-38942697D01*
X141752965Y-38807961D01*
X141725308Y-38716789D01*
X141669995Y-38534446D01*
X141641980Y-38250000D01*
X141669995Y-37965554D01*
X141752965Y-37692040D01*
X141752965Y-37692039D01*
X141887702Y-37439966D01*
X142069024Y-37219024D01*
X142289966Y-37037702D01*
X142289965Y-37037702D01*
X142289967Y-37037701D01*
X142407303Y-36974984D01*
X142542039Y-36902965D01*
X142633211Y-36875308D01*
X142815554Y-36819995D01*
X142922139Y-36809498D01*
X143028722Y-36799000D01*
X143971278Y-36799000D01*
X144077861Y-36809498D01*
X144077861Y-36809498D01*
G37*
M02*
