G04 #@! TF.GenerationSoftware,KiCad,Pcbnew,5.0.2-bee76a0~70~ubuntu16.04.1*
G04 #@! TF.CreationDate,2019-11-03T02:00:58+01:00*
G04 #@! TF.ProjectId,switch,73776974-6368-42e6-9b69-6361645f7063,rev?*
G04 #@! TF.SameCoordinates,Original*
G04 #@! TF.FileFunction,Legend,Top*
G04 #@! TF.FilePolarity,Positive*
%FSLAX46Y46*%
G04 Gerber Fmt 4.6, Leading zero omitted, Abs format (unit mm)*
G04 Created by KiCad (PCBNEW 5.0.2-bee76a0~70~ubuntu16.04.1) date Sun 03 Nov 2019 02:00:58 AM CET*
%MOMM*%
%LPD*%
G01*
G04 APERTURE LIST*
%ADD10C,0.300000*%
%ADD11C,0.200000*%
%ADD12C,0.150000*%
G04 APERTURE END LIST*
D10*
X112228571Y-44542857D02*
X111657142Y-44542857D01*
X111657142Y-43342857D01*
X112571428Y-44200000D02*
X113142857Y-44200000D01*
X112457142Y-44542857D02*
X112857142Y-43342857D01*
X113257142Y-44542857D01*
X113657142Y-44542857D02*
X113657142Y-43342857D01*
X114057142Y-44200000D01*
X114457142Y-43342857D01*
X114457142Y-44542857D01*
X115028571Y-44085714D02*
X115942857Y-44085714D01*
X116914285Y-43914285D02*
X117085714Y-43971428D01*
X117142857Y-44028571D01*
X117200000Y-44142857D01*
X117200000Y-44314285D01*
X117142857Y-44428571D01*
X117085714Y-44485714D01*
X116971428Y-44542857D01*
X116514285Y-44542857D01*
X116514285Y-43342857D01*
X116914285Y-43342857D01*
X117028571Y-43400000D01*
X117085714Y-43457142D01*
X117142857Y-43571428D01*
X117142857Y-43685714D01*
X117085714Y-43800000D01*
X117028571Y-43857142D01*
X116914285Y-43914285D01*
X116514285Y-43914285D01*
X117714285Y-43914285D02*
X118114285Y-43914285D01*
X118285714Y-44542857D02*
X117714285Y-44542857D01*
X117714285Y-43342857D01*
X118285714Y-43342857D01*
X119485714Y-44542857D02*
X119085714Y-43971428D01*
X118800000Y-44542857D02*
X118800000Y-43342857D01*
X119257142Y-43342857D01*
X119371428Y-43400000D01*
X119428571Y-43457142D01*
X119485714Y-43571428D01*
X119485714Y-43742857D01*
X119428571Y-43857142D01*
X119371428Y-43914285D01*
X119257142Y-43971428D01*
X118800000Y-43971428D01*
X119828571Y-43342857D02*
X120514285Y-43342857D01*
X120171428Y-44542857D02*
X120171428Y-43342857D01*
X113628571Y-41485714D02*
X113800000Y-41542857D01*
X114085714Y-41542857D01*
X114200000Y-41485714D01*
X114257142Y-41428571D01*
X114314285Y-41314285D01*
X114314285Y-41200000D01*
X114257142Y-41085714D01*
X114200000Y-41028571D01*
X114085714Y-40971428D01*
X113857142Y-40914285D01*
X113742857Y-40857142D01*
X113685714Y-40800000D01*
X113628571Y-40685714D01*
X113628571Y-40571428D01*
X113685714Y-40457142D01*
X113742857Y-40400000D01*
X113857142Y-40342857D01*
X114142857Y-40342857D01*
X114314285Y-40400000D01*
X114714285Y-40342857D02*
X115000000Y-41542857D01*
X115228571Y-40685714D01*
X115457142Y-41542857D01*
X115742857Y-40342857D01*
X117000000Y-40742857D02*
X117285714Y-41542857D01*
X117571428Y-40742857D01*
X118657142Y-41542857D02*
X117971428Y-41542857D01*
X118314285Y-41542857D02*
X118314285Y-40342857D01*
X118200000Y-40514285D01*
X118085714Y-40628571D01*
X117971428Y-40685714D01*
X119171428Y-41428571D02*
X119228571Y-41485714D01*
X119171428Y-41542857D01*
X119114285Y-41485714D01*
X119171428Y-41428571D01*
X119171428Y-41542857D01*
X119971428Y-40342857D02*
X120085714Y-40342857D01*
X120200000Y-40400000D01*
X120257142Y-40457142D01*
X120314285Y-40571428D01*
X120371428Y-40800000D01*
X120371428Y-41085714D01*
X120314285Y-41314285D01*
X120257142Y-41428571D01*
X120200000Y-41485714D01*
X120085714Y-41542857D01*
X119971428Y-41542857D01*
X119857142Y-41485714D01*
X119800000Y-41428571D01*
X119742857Y-41314285D01*
X119685714Y-41085714D01*
X119685714Y-40800000D01*
X119742857Y-40571428D01*
X119800000Y-40457142D01*
X119857142Y-40400000D01*
X119971428Y-40342857D01*
D11*
G04 #@! TO.C,J1*
X118003600Y-47250000D02*
X103650010Y-47250000D01*
X121850010Y-55000000D02*
X121850010Y-59942354D01*
X103650010Y-62750000D02*
X103650010Y-55000000D01*
X121850010Y-55000000D02*
X121850010Y-50057646D01*
X118003600Y-47250000D02*
G75*
G02X121850010Y-50057646I0J-4038569D01*
G01*
X118003600Y-62750000D02*
X103650010Y-62750000D01*
X121850010Y-59942354D02*
G75*
G02X118003600Y-62750000I-3846410J1230923D01*
G01*
X103650010Y-47250000D02*
X103650010Y-55000000D01*
G04 #@! TO.C,J2*
X152450009Y-58050000D02*
X145150009Y-58050000D01*
X152850009Y-58280940D02*
X152850009Y-65000000D01*
X145150009Y-57250000D02*
X139496419Y-57250000D01*
X145150009Y-65000000D02*
X145150009Y-72750000D01*
X135650009Y-69942354D02*
X135650009Y-65000000D01*
X135650009Y-60057646D02*
X135650009Y-65000000D01*
X145150009Y-72750000D02*
X139496419Y-72750000D01*
X145150009Y-65000000D02*
X145150009Y-57250000D01*
X139496419Y-72750000D02*
G75*
G02X135650009Y-69942354I0J4038569D01*
G01*
X152450009Y-58050000D02*
X152850009Y-58280940D01*
X152450009Y-71950000D02*
X152850009Y-71719060D01*
X135650009Y-60057646D02*
G75*
G02X139496419Y-57250000I3846410J-1230923D01*
G01*
X152450009Y-71950000D02*
X145150009Y-71950000D01*
X152850009Y-71719060D02*
X152850009Y-65000000D01*
G04 #@! TO.C,J3*
X152850009Y-51719060D02*
X152850009Y-45000000D01*
X152450009Y-51950000D02*
X145150009Y-51950000D01*
X135650009Y-40057646D02*
G75*
G02X139496419Y-37250000I3846410J-1230923D01*
G01*
X152450009Y-51950000D02*
X152850009Y-51719060D01*
X152450009Y-38050000D02*
X152850009Y-38280940D01*
X139496419Y-52750000D02*
G75*
G02X135650009Y-49942354I0J4038569D01*
G01*
X145150009Y-45000000D02*
X145150009Y-37250000D01*
X145150009Y-52750000D02*
X139496419Y-52750000D01*
X135650009Y-40057646D02*
X135650009Y-45000000D01*
X135650009Y-49942354D02*
X135650009Y-45000000D01*
X145150009Y-45000000D02*
X145150009Y-52750000D01*
X145150009Y-37250000D02*
X139496419Y-37250000D01*
X152850009Y-38280940D02*
X152850009Y-45000000D01*
X152450009Y-38050000D02*
X145150009Y-38050000D01*
G04 #@! TO.C,SW1*
X127450000Y-59100000D02*
X127450000Y-50900000D01*
X132550000Y-50900000D02*
X127450000Y-50900000D01*
X132550000Y-59100000D02*
X132550000Y-50900000D01*
X132550000Y-59100000D02*
X127450000Y-59100000D01*
G04 #@! TO.C,J1*
D12*
X122452380Y-55333333D02*
X123166666Y-55333333D01*
X123309523Y-55380952D01*
X123404761Y-55476190D01*
X123452380Y-55619047D01*
X123452380Y-55714285D01*
X123452380Y-54333333D02*
X123452380Y-54904761D01*
X123452380Y-54619047D02*
X122452380Y-54619047D01*
X122595238Y-54714285D01*
X122690476Y-54809523D01*
X122738095Y-54904761D01*
G04 #@! TO.C,J2*
X133952380Y-65333333D02*
X134666666Y-65333333D01*
X134809523Y-65380952D01*
X134904761Y-65476190D01*
X134952380Y-65619047D01*
X134952380Y-65714285D01*
X134047619Y-64904761D02*
X134000000Y-64857142D01*
X133952380Y-64761904D01*
X133952380Y-64523809D01*
X134000000Y-64428571D01*
X134047619Y-64380952D01*
X134142857Y-64333333D01*
X134238095Y-64333333D01*
X134380952Y-64380952D01*
X134952380Y-64952380D01*
X134952380Y-64333333D01*
G04 #@! TO.C,J3*
X133952380Y-45333333D02*
X134666666Y-45333333D01*
X134809523Y-45380952D01*
X134904761Y-45476190D01*
X134952380Y-45619047D01*
X134952380Y-45714285D01*
X133952380Y-44952380D02*
X133952380Y-44333333D01*
X134333333Y-44666666D01*
X134333333Y-44523809D01*
X134380952Y-44428571D01*
X134428571Y-44380952D01*
X134523809Y-44333333D01*
X134761904Y-44333333D01*
X134857142Y-44380952D01*
X134904761Y-44428571D01*
X134952380Y-44523809D01*
X134952380Y-44809523D01*
X134904761Y-44904761D01*
X134857142Y-44952380D01*
G04 #@! TO.C,SW1*
X134404761Y-56333333D02*
X134452380Y-56190476D01*
X134452380Y-55952380D01*
X134404761Y-55857142D01*
X134357142Y-55809523D01*
X134261904Y-55761904D01*
X134166666Y-55761904D01*
X134071428Y-55809523D01*
X134023809Y-55857142D01*
X133976190Y-55952380D01*
X133928571Y-56142857D01*
X133880952Y-56238095D01*
X133833333Y-56285714D01*
X133738095Y-56333333D01*
X133642857Y-56333333D01*
X133547619Y-56285714D01*
X133500000Y-56238095D01*
X133452380Y-56142857D01*
X133452380Y-55904761D01*
X133500000Y-55761904D01*
X133452380Y-55428571D02*
X134452380Y-55190476D01*
X133738095Y-55000000D01*
X134452380Y-54809523D01*
X133452380Y-54571428D01*
X134452380Y-53666666D02*
X134452380Y-54238095D01*
X134452380Y-53952380D02*
X133452380Y-53952380D01*
X133595238Y-54047619D01*
X133690476Y-54142857D01*
X133738095Y-54238095D01*
G04 #@! TD*
M02*
