G04 #@! TF.GenerationSoftware,KiCad,Pcbnew,5.0.2-bee76a0~70~ubuntu16.04.1*
G04 #@! TF.CreationDate,2019-11-03T02:02:15+01:00*
G04 #@! TF.ProjectId,lamp,6c616d70-2e6b-4696-9361-645f70636258,rev?*
G04 #@! TF.SameCoordinates,Original*
G04 #@! TF.FileFunction,Soldermask,Bot*
G04 #@! TF.FilePolarity,Negative*
%FSLAX46Y46*%
G04 Gerber Fmt 4.6, Leading zero omitted, Abs format (unit mm)*
G04 Created by KiCad (PCBNEW 5.0.2-bee76a0~70~ubuntu16.04.1) date Sun 03 Nov 2019 02:02:15 AM CET*
%MOMM*%
%LPD*%
G01*
G04 APERTURE LIST*
%ADD10C,0.100000*%
G04 APERTURE END LIST*
D10*
G36*
X88534445Y-104169995D02*
X88716788Y-104225308D01*
X88807960Y-104252965D01*
X89060034Y-104387702D01*
X89280976Y-104569024D01*
X89434728Y-104756371D01*
X89462299Y-104789967D01*
X89525016Y-104907303D01*
X89597035Y-105042039D01*
X89624692Y-105133211D01*
X89680005Y-105315554D01*
X89701000Y-105528724D01*
X89701000Y-106471275D01*
X89680005Y-106684446D01*
X89624692Y-106866789D01*
X89597035Y-106957961D01*
X89525016Y-107092697D01*
X89462299Y-107210033D01*
X89280976Y-107430976D01*
X89060033Y-107612299D01*
X88942697Y-107675016D01*
X88807961Y-107747035D01*
X88716789Y-107774692D01*
X88534446Y-107830005D01*
X88250000Y-107858020D01*
X87965555Y-107830005D01*
X87783212Y-107774692D01*
X87692040Y-107747035D01*
X87557304Y-107675016D01*
X87439968Y-107612299D01*
X87219025Y-107430976D01*
X87037701Y-107210034D01*
X86902965Y-106957961D01*
X86875308Y-106866789D01*
X86819995Y-106684446D01*
X86799000Y-106471276D01*
X86799000Y-105528725D01*
X86819995Y-105315555D01*
X86902965Y-105042041D01*
X86902965Y-105042040D01*
X87037702Y-104789966D01*
X87219024Y-104569024D01*
X87439966Y-104387702D01*
X87439965Y-104387702D01*
X87439967Y-104387701D01*
X87557303Y-104324984D01*
X87692039Y-104252965D01*
X87783211Y-104225308D01*
X87965554Y-104169995D01*
X88250000Y-104141980D01*
X88534445Y-104169995D01*
X88534445Y-104169995D01*
G37*
G36*
X102034445Y-104169995D02*
X102216788Y-104225308D01*
X102307960Y-104252965D01*
X102560034Y-104387702D01*
X102780976Y-104569024D01*
X102934728Y-104756371D01*
X102962299Y-104789967D01*
X103025016Y-104907303D01*
X103097035Y-105042039D01*
X103124692Y-105133211D01*
X103180005Y-105315554D01*
X103201000Y-105528724D01*
X103201000Y-106471275D01*
X103180005Y-106684446D01*
X103124692Y-106866789D01*
X103097035Y-106957961D01*
X103025016Y-107092697D01*
X102962299Y-107210033D01*
X102780976Y-107430976D01*
X102560033Y-107612299D01*
X102442697Y-107675016D01*
X102307961Y-107747035D01*
X102216789Y-107774692D01*
X102034446Y-107830005D01*
X101750000Y-107858020D01*
X101465555Y-107830005D01*
X101283212Y-107774692D01*
X101192040Y-107747035D01*
X101057304Y-107675016D01*
X100939968Y-107612299D01*
X100719025Y-107430976D01*
X100537701Y-107210034D01*
X100402965Y-106957961D01*
X100375308Y-106866789D01*
X100319995Y-106684446D01*
X100299000Y-106471276D01*
X100299000Y-105528725D01*
X100319995Y-105315555D01*
X100402965Y-105042041D01*
X100402965Y-105042040D01*
X100537702Y-104789966D01*
X100719024Y-104569024D01*
X100939966Y-104387702D01*
X100939965Y-104387702D01*
X100939967Y-104387701D01*
X101057303Y-104324984D01*
X101192039Y-104252965D01*
X101283211Y-104225308D01*
X101465554Y-104169995D01*
X101750000Y-104141980D01*
X102034445Y-104169995D01*
X102034445Y-104169995D01*
G37*
G36*
X99227421Y-97931661D02*
X99227423Y-97931662D01*
X99227424Y-97931662D01*
X99618881Y-98093808D01*
X99969594Y-98328147D01*
X99971186Y-98329211D01*
X100270789Y-98628814D01*
X100270791Y-98628817D01*
X100506192Y-98981119D01*
X100668338Y-99372576D01*
X100751000Y-99788145D01*
X100751000Y-100211855D01*
X100668338Y-100627424D01*
X100506192Y-101018881D01*
X100271853Y-101369594D01*
X100270789Y-101371186D01*
X99971186Y-101670789D01*
X99971183Y-101670791D01*
X99618881Y-101906192D01*
X99227424Y-102068338D01*
X99227423Y-102068338D01*
X99227421Y-102068339D01*
X98811856Y-102151000D01*
X98388144Y-102151000D01*
X97972579Y-102068339D01*
X97972577Y-102068338D01*
X97972576Y-102068338D01*
X97581119Y-101906192D01*
X97228817Y-101670791D01*
X97228814Y-101670789D01*
X96929211Y-101371186D01*
X96928147Y-101369594D01*
X96693808Y-101018881D01*
X96531662Y-100627424D01*
X96449000Y-100211855D01*
X96449000Y-99788145D01*
X96531662Y-99372576D01*
X96693808Y-98981119D01*
X96929209Y-98628817D01*
X96929211Y-98628814D01*
X97228814Y-98329211D01*
X97230406Y-98328147D01*
X97581119Y-98093808D01*
X97972576Y-97931662D01*
X97972577Y-97931662D01*
X97972579Y-97931661D01*
X98388144Y-97849000D01*
X98811856Y-97849000D01*
X99227421Y-97931661D01*
X99227421Y-97931661D01*
G37*
G36*
X92027421Y-97931661D02*
X92027423Y-97931662D01*
X92027424Y-97931662D01*
X92418881Y-98093808D01*
X92769594Y-98328147D01*
X92771186Y-98329211D01*
X93070789Y-98628814D01*
X93070791Y-98628817D01*
X93306192Y-98981119D01*
X93468338Y-99372576D01*
X93551000Y-99788145D01*
X93551000Y-100211855D01*
X93468338Y-100627424D01*
X93306192Y-101018881D01*
X93071853Y-101369594D01*
X93070789Y-101371186D01*
X92771186Y-101670789D01*
X92771183Y-101670791D01*
X92418881Y-101906192D01*
X92027424Y-102068338D01*
X92027423Y-102068338D01*
X92027421Y-102068339D01*
X91611856Y-102151000D01*
X91188144Y-102151000D01*
X90772579Y-102068339D01*
X90772577Y-102068338D01*
X90772576Y-102068338D01*
X90381119Y-101906192D01*
X90028817Y-101670791D01*
X90028814Y-101670789D01*
X89729211Y-101371186D01*
X89728147Y-101369594D01*
X89493808Y-101018881D01*
X89331662Y-100627424D01*
X89249000Y-100211855D01*
X89249000Y-99788145D01*
X89331662Y-99372576D01*
X89493808Y-98981119D01*
X89729209Y-98628817D01*
X89729211Y-98628814D01*
X90028814Y-98329211D01*
X90030406Y-98328147D01*
X90381119Y-98093808D01*
X90772576Y-97931662D01*
X90772577Y-97931662D01*
X90772579Y-97931661D01*
X91188144Y-97849000D01*
X91611856Y-97849000D01*
X92027421Y-97931661D01*
X92027421Y-97931661D01*
G37*
G36*
X93651000Y-97301000D02*
X91549000Y-97301000D01*
X91549000Y-96099000D01*
X93651000Y-96099000D01*
X93651000Y-97301000D01*
X93651000Y-97301000D01*
G37*
G36*
X98451000Y-97301000D02*
X96349000Y-97301000D01*
X96349000Y-96099000D01*
X98451000Y-96099000D01*
X98451000Y-97301000D01*
X98451000Y-97301000D01*
G37*
G36*
X106432078Y-93147703D02*
X106554501Y-93172054D01*
X106697802Y-93231411D01*
X106900460Y-93315355D01*
X107211820Y-93523399D01*
X107476601Y-93788180D01*
X107684645Y-94099540D01*
X107827946Y-94445500D01*
X107901000Y-94812766D01*
X107901000Y-95187234D01*
X107827946Y-95554500D01*
X107684645Y-95900460D01*
X107476601Y-96211820D01*
X107211820Y-96476601D01*
X106900460Y-96684645D01*
X106697802Y-96768589D01*
X106554501Y-96827946D01*
X106432078Y-96852297D01*
X106187234Y-96901000D01*
X105812766Y-96901000D01*
X105567922Y-96852297D01*
X105445499Y-96827946D01*
X105302198Y-96768589D01*
X105099540Y-96684645D01*
X104788180Y-96476601D01*
X104523399Y-96211820D01*
X104315355Y-95900460D01*
X104172054Y-95554500D01*
X104099000Y-95187234D01*
X104099000Y-94812766D01*
X104172054Y-94445500D01*
X104315355Y-94099540D01*
X104523399Y-93788180D01*
X104788180Y-93523399D01*
X105099540Y-93315355D01*
X105302198Y-93231411D01*
X105445499Y-93172054D01*
X105567922Y-93147703D01*
X105812766Y-93099000D01*
X106187234Y-93099000D01*
X106432078Y-93147703D01*
X106432078Y-93147703D01*
G37*
G36*
X84432078Y-93147703D02*
X84554501Y-93172054D01*
X84697802Y-93231411D01*
X84900460Y-93315355D01*
X85211820Y-93523399D01*
X85476601Y-93788180D01*
X85684645Y-94099540D01*
X85827946Y-94445500D01*
X85901000Y-94812766D01*
X85901000Y-95187234D01*
X85827946Y-95554500D01*
X85684645Y-95900460D01*
X85476601Y-96211820D01*
X85211820Y-96476601D01*
X84900460Y-96684645D01*
X84697802Y-96768589D01*
X84554501Y-96827946D01*
X84432078Y-96852297D01*
X84187234Y-96901000D01*
X83812766Y-96901000D01*
X83567922Y-96852297D01*
X83445499Y-96827946D01*
X83302198Y-96768589D01*
X83099540Y-96684645D01*
X82788180Y-96476601D01*
X82523399Y-96211820D01*
X82315355Y-95900460D01*
X82172054Y-95554500D01*
X82099000Y-95187234D01*
X82099000Y-94812766D01*
X82172054Y-94445500D01*
X82315355Y-94099540D01*
X82523399Y-93788180D01*
X82788180Y-93523399D01*
X83099540Y-93315355D01*
X83302198Y-93231411D01*
X83445499Y-93172054D01*
X83567922Y-93147703D01*
X83812766Y-93099000D01*
X84187234Y-93099000D01*
X84432078Y-93147703D01*
X84432078Y-93147703D01*
G37*
G36*
X93651000Y-95601000D02*
X91549000Y-95601000D01*
X91549000Y-94399000D01*
X93651000Y-94399000D01*
X93651000Y-95601000D01*
X93651000Y-95601000D01*
G37*
G36*
X98451000Y-95601000D02*
X96349000Y-95601000D01*
X96349000Y-94399000D01*
X98451000Y-94399000D01*
X98451000Y-95601000D01*
X98451000Y-95601000D01*
G37*
G36*
X93651000Y-93901000D02*
X91549000Y-93901000D01*
X91549000Y-92699000D01*
X93651000Y-92699000D01*
X93651000Y-93901000D01*
X93651000Y-93901000D01*
G37*
G36*
X98451000Y-93901000D02*
X96349000Y-93901000D01*
X96349000Y-92699000D01*
X98451000Y-92699000D01*
X98451000Y-93901000D01*
X98451000Y-93901000D01*
G37*
G36*
X92626821Y-89781313D02*
X92626824Y-89781314D01*
X92626825Y-89781314D01*
X92787239Y-89829975D01*
X92787241Y-89829976D01*
X92787244Y-89829977D01*
X92935078Y-89908995D01*
X93064659Y-90015341D01*
X93171005Y-90144922D01*
X93250023Y-90292756D01*
X93298687Y-90453179D01*
X93315117Y-90620000D01*
X93298687Y-90786821D01*
X93250023Y-90947244D01*
X93171005Y-91095078D01*
X93064659Y-91224659D01*
X92935078Y-91331005D01*
X92787244Y-91410023D01*
X92787241Y-91410024D01*
X92787239Y-91410025D01*
X92626825Y-91458686D01*
X92626824Y-91458686D01*
X92626821Y-91458687D01*
X92501804Y-91471000D01*
X92418196Y-91471000D01*
X92293179Y-91458687D01*
X92293176Y-91458686D01*
X92293175Y-91458686D01*
X92132761Y-91410025D01*
X92132759Y-91410024D01*
X92132756Y-91410023D01*
X91984922Y-91331005D01*
X91855341Y-91224659D01*
X91748995Y-91095078D01*
X91669977Y-90947244D01*
X91621313Y-90786821D01*
X91604883Y-90620000D01*
X91621313Y-90453179D01*
X91669977Y-90292756D01*
X91748995Y-90144922D01*
X91855341Y-90015341D01*
X91984922Y-89908995D01*
X92132756Y-89829977D01*
X92132759Y-89829976D01*
X92132761Y-89829975D01*
X92293175Y-89781314D01*
X92293176Y-89781314D01*
X92293179Y-89781313D01*
X92418196Y-89769000D01*
X92501804Y-89769000D01*
X92626821Y-89781313D01*
X92626821Y-89781313D01*
G37*
G36*
X95166821Y-89781313D02*
X95166824Y-89781314D01*
X95166825Y-89781314D01*
X95327239Y-89829975D01*
X95327241Y-89829976D01*
X95327244Y-89829977D01*
X95475078Y-89908995D01*
X95604659Y-90015341D01*
X95711005Y-90144922D01*
X95790023Y-90292756D01*
X95838687Y-90453179D01*
X95855117Y-90620000D01*
X95838687Y-90786821D01*
X95790023Y-90947244D01*
X95711005Y-91095078D01*
X95604659Y-91224659D01*
X95475078Y-91331005D01*
X95327244Y-91410023D01*
X95327241Y-91410024D01*
X95327239Y-91410025D01*
X95166825Y-91458686D01*
X95166824Y-91458686D01*
X95166821Y-91458687D01*
X95041804Y-91471000D01*
X94958196Y-91471000D01*
X94833179Y-91458687D01*
X94833176Y-91458686D01*
X94833175Y-91458686D01*
X94672761Y-91410025D01*
X94672759Y-91410024D01*
X94672756Y-91410023D01*
X94524922Y-91331005D01*
X94395341Y-91224659D01*
X94288995Y-91095078D01*
X94209977Y-90947244D01*
X94161313Y-90786821D01*
X94144883Y-90620000D01*
X94161313Y-90453179D01*
X94209977Y-90292756D01*
X94288995Y-90144922D01*
X94395341Y-90015341D01*
X94524922Y-89908995D01*
X94672756Y-89829977D01*
X94672759Y-89829976D01*
X94672761Y-89829975D01*
X94833175Y-89781314D01*
X94833176Y-89781314D01*
X94833179Y-89781313D01*
X94958196Y-89769000D01*
X95041804Y-89769000D01*
X95166821Y-89781313D01*
X95166821Y-89781313D01*
G37*
G36*
X97706821Y-89781313D02*
X97706824Y-89781314D01*
X97706825Y-89781314D01*
X97867239Y-89829975D01*
X97867241Y-89829976D01*
X97867244Y-89829977D01*
X98015078Y-89908995D01*
X98144659Y-90015341D01*
X98251005Y-90144922D01*
X98330023Y-90292756D01*
X98378687Y-90453179D01*
X98395117Y-90620000D01*
X98378687Y-90786821D01*
X98330023Y-90947244D01*
X98251005Y-91095078D01*
X98144659Y-91224659D01*
X98015078Y-91331005D01*
X97867244Y-91410023D01*
X97867241Y-91410024D01*
X97867239Y-91410025D01*
X97706825Y-91458686D01*
X97706824Y-91458686D01*
X97706821Y-91458687D01*
X97581804Y-91471000D01*
X97498196Y-91471000D01*
X97373179Y-91458687D01*
X97373176Y-91458686D01*
X97373175Y-91458686D01*
X97212761Y-91410025D01*
X97212759Y-91410024D01*
X97212756Y-91410023D01*
X97064922Y-91331005D01*
X96935341Y-91224659D01*
X96828995Y-91095078D01*
X96749977Y-90947244D01*
X96701313Y-90786821D01*
X96684883Y-90620000D01*
X96701313Y-90453179D01*
X96749977Y-90292756D01*
X96828995Y-90144922D01*
X96935341Y-90015341D01*
X97064922Y-89908995D01*
X97212756Y-89829977D01*
X97212759Y-89829976D01*
X97212761Y-89829975D01*
X97373175Y-89781314D01*
X97373176Y-89781314D01*
X97373179Y-89781313D01*
X97498196Y-89769000D01*
X97581804Y-89769000D01*
X97706821Y-89781313D01*
X97706821Y-89781313D01*
G37*
G36*
X92626821Y-82161313D02*
X92626824Y-82161314D01*
X92626825Y-82161314D01*
X92787239Y-82209975D01*
X92787241Y-82209976D01*
X92787244Y-82209977D01*
X92935078Y-82288995D01*
X93064659Y-82395341D01*
X93171005Y-82524922D01*
X93250023Y-82672756D01*
X93298687Y-82833179D01*
X93315117Y-83000000D01*
X93298687Y-83166821D01*
X93250023Y-83327244D01*
X93171005Y-83475078D01*
X93064659Y-83604659D01*
X92935078Y-83711005D01*
X92787244Y-83790023D01*
X92787241Y-83790024D01*
X92787239Y-83790025D01*
X92626825Y-83838686D01*
X92626824Y-83838686D01*
X92626821Y-83838687D01*
X92501804Y-83851000D01*
X92418196Y-83851000D01*
X92293179Y-83838687D01*
X92293176Y-83838686D01*
X92293175Y-83838686D01*
X92132761Y-83790025D01*
X92132759Y-83790024D01*
X92132756Y-83790023D01*
X91984922Y-83711005D01*
X91855341Y-83604659D01*
X91748995Y-83475078D01*
X91669977Y-83327244D01*
X91621313Y-83166821D01*
X91604883Y-83000000D01*
X91621313Y-82833179D01*
X91669977Y-82672756D01*
X91748995Y-82524922D01*
X91855341Y-82395341D01*
X91984922Y-82288995D01*
X92132756Y-82209977D01*
X92132759Y-82209976D01*
X92132761Y-82209975D01*
X92293175Y-82161314D01*
X92293176Y-82161314D01*
X92293179Y-82161313D01*
X92418196Y-82149000D01*
X92501804Y-82149000D01*
X92626821Y-82161313D01*
X92626821Y-82161313D01*
G37*
G36*
X95166821Y-82161313D02*
X95166824Y-82161314D01*
X95166825Y-82161314D01*
X95327239Y-82209975D01*
X95327241Y-82209976D01*
X95327244Y-82209977D01*
X95475078Y-82288995D01*
X95604659Y-82395341D01*
X95711005Y-82524922D01*
X95790023Y-82672756D01*
X95838687Y-82833179D01*
X95855117Y-83000000D01*
X95838687Y-83166821D01*
X95790023Y-83327244D01*
X95711005Y-83475078D01*
X95604659Y-83604659D01*
X95475078Y-83711005D01*
X95327244Y-83790023D01*
X95327241Y-83790024D01*
X95327239Y-83790025D01*
X95166825Y-83838686D01*
X95166824Y-83838686D01*
X95166821Y-83838687D01*
X95041804Y-83851000D01*
X94958196Y-83851000D01*
X94833179Y-83838687D01*
X94833176Y-83838686D01*
X94833175Y-83838686D01*
X94672761Y-83790025D01*
X94672759Y-83790024D01*
X94672756Y-83790023D01*
X94524922Y-83711005D01*
X94395341Y-83604659D01*
X94288995Y-83475078D01*
X94209977Y-83327244D01*
X94161313Y-83166821D01*
X94144883Y-83000000D01*
X94161313Y-82833179D01*
X94209977Y-82672756D01*
X94288995Y-82524922D01*
X94395341Y-82395341D01*
X94524922Y-82288995D01*
X94672756Y-82209977D01*
X94672759Y-82209976D01*
X94672761Y-82209975D01*
X94833175Y-82161314D01*
X94833176Y-82161314D01*
X94833179Y-82161313D01*
X94958196Y-82149000D01*
X95041804Y-82149000D01*
X95166821Y-82161313D01*
X95166821Y-82161313D01*
G37*
G36*
X98391000Y-83851000D02*
X96689000Y-83851000D01*
X96689000Y-82149000D01*
X98391000Y-82149000D01*
X98391000Y-83851000D01*
X98391000Y-83851000D01*
G37*
M02*
