G04 #@! TF.GenerationSoftware,KiCad,Pcbnew,5.0.2-bee76a0~70~ubuntu16.04.1*
G04 #@! TF.CreationDate,2019-11-03T01:58:48+01:00*
G04 #@! TF.ProjectId,hub,6875622e-6b69-4636-9164-5f7063625858,rev?*
G04 #@! TF.SameCoordinates,Original*
G04 #@! TF.FileFunction,Legend,Top*
G04 #@! TF.FilePolarity,Positive*
%FSLAX46Y46*%
G04 Gerber Fmt 4.6, Leading zero omitted, Abs format (unit mm)*
G04 Created by KiCad (PCBNEW 5.0.2-bee76a0~70~ubuntu16.04.1) date Sun 03 Nov 2019 01:58:48 AM CET*
%MOMM*%
%LPD*%
G01*
G04 APERTURE LIST*
%ADD10C,0.300000*%
%ADD11C,0.200000*%
%ADD12C,0.150000*%
G04 APERTURE END LIST*
D10*
X131964285Y-73178571D02*
X131250000Y-73178571D01*
X131250000Y-71678571D01*
X132392857Y-72750000D02*
X133107142Y-72750000D01*
X132250000Y-73178571D02*
X132750000Y-71678571D01*
X133250000Y-73178571D01*
X133750000Y-73178571D02*
X133750000Y-71678571D01*
X134250000Y-72750000D01*
X134750000Y-71678571D01*
X134750000Y-73178571D01*
X135464285Y-72607142D02*
X136607142Y-72607142D01*
X137821428Y-72392857D02*
X138035714Y-72464285D01*
X138107142Y-72535714D01*
X138178571Y-72678571D01*
X138178571Y-72892857D01*
X138107142Y-73035714D01*
X138035714Y-73107142D01*
X137892857Y-73178571D01*
X137321428Y-73178571D01*
X137321428Y-71678571D01*
X137821428Y-71678571D01*
X137964285Y-71750000D01*
X138035714Y-71821428D01*
X138107142Y-71964285D01*
X138107142Y-72107142D01*
X138035714Y-72250000D01*
X137964285Y-72321428D01*
X137821428Y-72392857D01*
X137321428Y-72392857D01*
X138821428Y-72392857D02*
X139321428Y-72392857D01*
X139535714Y-73178571D02*
X138821428Y-73178571D01*
X138821428Y-71678571D01*
X139535714Y-71678571D01*
X141035714Y-73178571D02*
X140535714Y-72464285D01*
X140178571Y-73178571D02*
X140178571Y-71678571D01*
X140750000Y-71678571D01*
X140892857Y-71750000D01*
X140964285Y-71821428D01*
X141035714Y-71964285D01*
X141035714Y-72178571D01*
X140964285Y-72321428D01*
X140892857Y-72392857D01*
X140750000Y-72464285D01*
X140178571Y-72464285D01*
X141464285Y-71678571D02*
X142321428Y-71678571D01*
X141892857Y-73178571D02*
X141892857Y-71678571D01*
X143964285Y-73178571D02*
X143964285Y-71678571D01*
X143964285Y-72392857D02*
X144821428Y-72392857D01*
X144821428Y-73178571D02*
X144821428Y-71678571D01*
X145535714Y-71678571D02*
X145535714Y-72892857D01*
X145607142Y-73035714D01*
X145678571Y-73107142D01*
X145821428Y-73178571D01*
X146107142Y-73178571D01*
X146250000Y-73107142D01*
X146321428Y-73035714D01*
X146392857Y-72892857D01*
X146392857Y-71678571D01*
X147607142Y-72392857D02*
X147821428Y-72464285D01*
X147892857Y-72535714D01*
X147964285Y-72678571D01*
X147964285Y-72892857D01*
X147892857Y-73035714D01*
X147821428Y-73107142D01*
X147678571Y-73178571D01*
X147107142Y-73178571D01*
X147107142Y-71678571D01*
X147607142Y-71678571D01*
X147750000Y-71750000D01*
X147821428Y-71821428D01*
X147892857Y-71964285D01*
X147892857Y-72107142D01*
X147821428Y-72250000D01*
X147750000Y-72321428D01*
X147607142Y-72392857D01*
X147107142Y-72392857D01*
X149607142Y-72178571D02*
X149964285Y-73178571D01*
X150321428Y-72178571D01*
X151678571Y-73178571D02*
X150821428Y-73178571D01*
X151250000Y-73178571D02*
X151250000Y-71678571D01*
X151107142Y-71892857D01*
X150964285Y-72035714D01*
X150821428Y-72107142D01*
X152321428Y-73035714D02*
X152392857Y-73107142D01*
X152321428Y-73178571D01*
X152250000Y-73107142D01*
X152321428Y-73035714D01*
X152321428Y-73178571D01*
X153321428Y-71678571D02*
X153464285Y-71678571D01*
X153607142Y-71750000D01*
X153678571Y-71821428D01*
X153750000Y-71964285D01*
X153821428Y-72250000D01*
X153821428Y-72607142D01*
X153750000Y-72892857D01*
X153678571Y-73035714D01*
X153607142Y-73107142D01*
X153464285Y-73178571D01*
X153321428Y-73178571D01*
X153178571Y-73107142D01*
X153107142Y-73035714D01*
X153035714Y-72892857D01*
X152964285Y-72607142D01*
X152964285Y-72250000D01*
X153035714Y-71964285D01*
X153107142Y-71821428D01*
X153178571Y-71750000D01*
X153321428Y-71678571D01*
D11*
G04 #@! TO.C,J2*
X123950000Y-80446595D02*
X123950000Y-92050000D01*
X116650000Y-92650000D02*
G75*
G02X116050000Y-92050000I0J600000D01*
G01*
X116050000Y-80446596D02*
G75*
G02X123950000Y-80446595I3950000J-915801D01*
G01*
X116050000Y-92050000D02*
X116050000Y-80446595D01*
X123950000Y-92050000D02*
G75*
G02X123350000Y-92650000I-600000J0D01*
G01*
X116650000Y-92650000D02*
X123350000Y-92650000D01*
G04 #@! TO.C,J3*
X138950000Y-80446595D02*
X138950000Y-92050000D01*
X131650000Y-92650000D02*
G75*
G02X131050000Y-92050000I0J600000D01*
G01*
X131050000Y-80446596D02*
G75*
G02X138950000Y-80446595I3950000J-915801D01*
G01*
X131050000Y-92050000D02*
X131050000Y-80446595D01*
X138950000Y-92050000D02*
G75*
G02X138350000Y-92650000I-600000J0D01*
G01*
X131650000Y-92650000D02*
X138350000Y-92650000D01*
G04 #@! TO.C,J4*
X153950000Y-80446595D02*
X153950000Y-92050000D01*
X146650000Y-92650000D02*
G75*
G02X146050000Y-92050000I0J600000D01*
G01*
X146050000Y-80446596D02*
G75*
G02X153950000Y-80446595I3950000J-915801D01*
G01*
X146050000Y-92050000D02*
X146050000Y-80446595D01*
X153950000Y-92050000D02*
G75*
G02X153350000Y-92650000I-600000J0D01*
G01*
X146650000Y-92650000D02*
X153350000Y-92650000D01*
G04 #@! TO.C,J5*
X168950000Y-80446595D02*
X168950000Y-92050000D01*
X161650000Y-92650000D02*
G75*
G02X161050000Y-92050000I0J600000D01*
G01*
X161050000Y-80446596D02*
G75*
G02X168950000Y-80446595I3950000J-915801D01*
G01*
X161050000Y-92050000D02*
X161050000Y-80446595D01*
X168950000Y-92050000D02*
G75*
G02X168350000Y-92650000I-600000J0D01*
G01*
X161650000Y-92650000D02*
X168350000Y-92650000D01*
G04 #@! TO.C,J1*
X106003600Y-77250000D02*
X91650010Y-77250000D01*
X109850010Y-85000000D02*
X109850010Y-89942354D01*
X91650010Y-92750000D02*
X91650010Y-85000000D01*
X109850010Y-85000000D02*
X109850010Y-80057646D01*
X106003600Y-77250000D02*
G75*
G02X109850010Y-80057646I0J-4038569D01*
G01*
X106003600Y-92750000D02*
X91650010Y-92750000D01*
X109850010Y-89942354D02*
G75*
G02X106003600Y-92750000I-3846410J1230923D01*
G01*
X91650010Y-77250000D02*
X91650010Y-85000000D01*
G04 #@! TO.C,J2*
D12*
X125052380Y-85333333D02*
X125766666Y-85333333D01*
X125909523Y-85380952D01*
X126004761Y-85476190D01*
X126052380Y-85619047D01*
X126052380Y-85714285D01*
X125147619Y-84904761D02*
X125100000Y-84857142D01*
X125052380Y-84761904D01*
X125052380Y-84523809D01*
X125100000Y-84428571D01*
X125147619Y-84380952D01*
X125242857Y-84333333D01*
X125338095Y-84333333D01*
X125480952Y-84380952D01*
X126052380Y-84952380D01*
X126052380Y-84333333D01*
G04 #@! TO.C,J3*
X140052380Y-85333333D02*
X140766666Y-85333333D01*
X140909523Y-85380952D01*
X141004761Y-85476190D01*
X141052380Y-85619047D01*
X141052380Y-85714285D01*
X140052380Y-84952380D02*
X140052380Y-84333333D01*
X140433333Y-84666666D01*
X140433333Y-84523809D01*
X140480952Y-84428571D01*
X140528571Y-84380952D01*
X140623809Y-84333333D01*
X140861904Y-84333333D01*
X140957142Y-84380952D01*
X141004761Y-84428571D01*
X141052380Y-84523809D01*
X141052380Y-84809523D01*
X141004761Y-84904761D01*
X140957142Y-84952380D01*
G04 #@! TO.C,J4*
X155052380Y-85333333D02*
X155766666Y-85333333D01*
X155909523Y-85380952D01*
X156004761Y-85476190D01*
X156052380Y-85619047D01*
X156052380Y-85714285D01*
X155385714Y-84428571D02*
X156052380Y-84428571D01*
X155004761Y-84666666D02*
X155719047Y-84904761D01*
X155719047Y-84285714D01*
G04 #@! TO.C,J5*
X170052380Y-85333333D02*
X170766666Y-85333333D01*
X170909523Y-85380952D01*
X171004761Y-85476190D01*
X171052380Y-85619047D01*
X171052380Y-85714285D01*
X170052380Y-84380952D02*
X170052380Y-84857142D01*
X170528571Y-84904761D01*
X170480952Y-84857142D01*
X170433333Y-84761904D01*
X170433333Y-84523809D01*
X170480952Y-84428571D01*
X170528571Y-84380952D01*
X170623809Y-84333333D01*
X170861904Y-84333333D01*
X170957142Y-84380952D01*
X171004761Y-84428571D01*
X171052380Y-84523809D01*
X171052380Y-84761904D01*
X171004761Y-84857142D01*
X170957142Y-84904761D01*
G04 #@! TO.C,J1*
X110452380Y-85333333D02*
X111166666Y-85333333D01*
X111309523Y-85380952D01*
X111404761Y-85476190D01*
X111452380Y-85619047D01*
X111452380Y-85714285D01*
X111452380Y-84333333D02*
X111452380Y-84904761D01*
X111452380Y-84619047D02*
X110452380Y-84619047D01*
X110595238Y-84714285D01*
X110690476Y-84809523D01*
X110738095Y-84904761D01*
G04 #@! TD*
M02*
